<svg version="1.1" id="Layer_1" xmlns="http://www.w3.org/2000/svg" xmlns:xlink="http://www.w3.org/1999/xlink" x="0px" y="0px"
	 width="100%" viewBox="0 0 4000 750" enable-background="new 0 0 4000 750" xml:space="preserve">
<path fill="#335BA9" opacity="1.000000" stroke="none" 
	d="
M2960.000000,751.000000 
	C1973.333374,751.000000 987.166687,751.000000 1.000000,751.000000 
	C1.000000,501.000000 1.000000,251.000000 1.000000,1.000000 
	C1334.333374,1.000000 2667.666748,1.000000 4001.000000,1.000000 
	C4001.000000,251.000000 4001.000000,501.000000 4001.000000,751.000000 
	C3654.166748,751.000000 3307.333252,751.000000 2960.000000,751.000000 
M154.655441,408.959015 
	C161.833313,438.661377 174.146851,465.979645 191.711349,491.060089 
	C212.873474,521.277649 239.303818,545.699280 271.442169,563.585693 
	C315.645996,588.187134 363.121948,598.154419 413.586273,592.949524 
	C444.019409,589.810547 472.866150,581.267517 499.821442,566.732727 
	C509.241913,561.653015 518.326843,555.951111 528.527466,549.968933 
	C577.569214,599.012146 626.877686,648.322083 675.384338,696.830261 
	C688.342834,683.939270 701.499695,670.851013 715.124878,657.296814 
	C666.926758,609.483521 618.337891,561.282593 569.720825,513.053711 
	C571.010437,511.329681 571.655029,510.371246 572.394836,509.492950 
	C588.366089,490.531677 601.423462,469.771454 610.993103,446.870361 
	C631.681763,397.360565 635.525146,346.530029 622.594666,294.486328 
	C613.889221,259.447723 597.645996,228.222092 574.706604,200.342361 
	C554.021790,175.202682 529.230103,155.201401 500.631989,139.837570 
	C475.949982,126.577614 449.612579,118.275803 421.916565,114.319557 
	C390.379761,109.814667 359.105042,111.573143 328.345795,119.716049 
	C283.957001,131.467102 245.868118,154.060822 214.190521,187.404510 
	C191.550415,211.235397 174.384811,238.492874 163.041580,269.314270 
	C146.338943,314.698059 143.586716,361.019409 154.655441,408.959015 
M1655.830566,338.813202 
	C1655.830566,450.732269 1655.830566,562.651367 1655.830566,674.743042 
	C1686.241943,674.743042 1715.975586,674.743042 1746.100708,674.743042 
	C1746.100708,592.764648 1746.100708,511.042969 1746.100708,427.880096 
	C1763.755981,428.916412 1781.051514,429.105652 1798.114746,431.194000 
	C1811.813110,432.870453 1821.458130,441.410431 1826.976074,454.337372 
	C1832.247314,466.686371 1833.577637,479.759216 1833.736816,492.895996 
	C1834.094116,522.383484 1833.835083,551.877869 1834.037109,581.368042 
	C1834.170532,600.847107 1834.433594,620.331604 1835.090576,639.798462 
	C1835.498901,651.899414 1837.861206,663.722534 1842.337769,674.616333 
	C1873.090820,674.616333 1903.296509,674.616333 1933.873291,674.616333 
	C1932.727783,671.188110 1931.717285,668.222046 1930.744385,665.243713 
	C1924.653564,646.597351 1924.308716,627.268677 1924.209595,607.959351 
	C1924.014404,569.970764 1924.316406,531.978149 1923.903442,493.992737 
	C1923.656616,471.286774 1921.150635,448.805023 1912.343628,427.527374 
	C1903.720337,406.692871 1889.413818,391.613861 1867.798950,384.043823 
	C1866.481812,383.582520 1865.243530,382.895752 1862.994141,381.869141 
	C1866.685791,379.968628 1869.406738,378.507050 1872.179443,377.151337 
	C1882.649048,372.032013 1891.421997,364.782959 1898.664917,355.725311 
	C1914.221680,336.270233 1920.544800,313.333893 1921.955322,289.106323 
	C1923.154175,268.513947 1923.058838,247.823105 1922.893799,227.180969 
	C1922.729492,206.632248 1920.020264,186.398956 1912.525391,167.045868 
	C1902.376587,140.840576 1884.303467,122.517555 1858.255981,111.918091 
	C1835.968384,102.848747 1812.576050,100.621490 1788.874512,100.537766 
	C1746.384277,100.387680 1703.893066,100.495422 1661.402344,100.495415 
	C1659.620605,100.495415 1657.838989,100.495415 1655.495361,100.495415 
	C1655.495361,103.026588 1655.495483,104.983505 1655.495483,106.940422 
	C1655.495483,181.424255 1655.492188,255.908081 1655.509277,330.391907 
	C1655.509888,332.884888 1655.715942,335.377838 1655.830566,338.813202 
M3546.495361,354.499573 
	C3546.495361,460.584320 3546.495361,566.669067 3546.495361,672.945496 
	C3548.394531,673.054443 3549.366943,673.158997 3550.339600,673.159119 
	C3594.501221,673.167236 3638.663086,673.226196 3682.824707,673.137512 
	C3701.185059,673.100647 3719.344727,671.355652 3737.026367,665.937805 
	C3761.502441,658.438049 3781.563721,644.914917 3795.886719,623.397888 
	C3811.893311,599.351990 3817.616699,572.219238 3818.680664,544.016785 
	C3819.509033,522.055603 3818.999512,500.041901 3818.990967,478.051575 
	C3818.959961,397.896210 3819.003662,317.740509 3818.759766,237.585709 
	C3818.693115,215.698608 3815.957275,194.116776 3808.192627,173.415009 
	C3800.994141,154.223251 3790.267090,137.540344 3773.929932,124.828346 
	C3750.636475,106.703125 3723.478760,99.602844 3694.702881,99.176590 
	C3646.886963,98.468300 3599.054443,98.884384 3551.228760,98.844025 
	C3549.640625,98.842690 3548.052490,99.027016 3546.495361,99.122879 
	C3546.495361,184.249939 3546.495361,268.874725 3546.495361,354.499573 
M2778.491455,445.499573 
	C2778.491455,521.570984 2778.491455,597.642395 2778.491455,673.661499 
	C2809.283447,673.661499 2839.015625,673.661499 2868.471191,673.661499 
	C2868.471191,482.243683 2868.471191,291.167755 2868.471191,99.826698 
	C2838.054443,99.826698 2808.169434,99.826698 2777.941895,99.826698 
	C2777.941895,177.760834 2777.941895,255.360443 2777.941895,333.107819 
	C2745.723145,333.107819 2713.849121,333.107819 2681.296387,333.107819 
	C2681.296387,255.154221 2681.296387,177.581299 2681.296387,99.940033 
	C2650.884521,99.940033 2621.155273,99.940033 2591.678955,99.940033 
	C2591.678955,291.554474 2591.678955,482.719666 2591.678955,673.701538 
	C2622.090576,673.701538 2651.818848,673.701538 2681.862549,673.701538 
	C2681.862549,587.499756 2681.862549,501.766876 2681.862549,415.832123 
	C2714.112793,415.832123 2746.008301,415.832123 2778.491455,415.832123 
	C2778.491455,425.596008 2778.491455,435.047760 2778.491455,445.499573 
M1310.999023,524.500183 
	C1310.999023,574.617249 1310.999023,624.734375 1310.999023,675.122192 
	C1341.415405,675.122192 1371.168091,675.122192 1401.421265,675.122192 
	C1401.421265,588.869568 1401.421265,502.997742 1401.421265,417.122650 
	C1433.851685,417.122650 1465.780151,417.122650 1498.352295,417.122650 
	C1498.352295,503.156189 1498.352295,588.903870 1498.352295,674.737671 
	C1528.851196,674.737671 1558.702881,674.737671 1588.098877,674.737671 
	C1588.098877,483.253754 1588.098877,292.201080 1588.098877,101.180969 
	C1557.629150,101.180969 1527.896484,101.180969 1497.837280,101.180969 
	C1497.837280,179.117584 1497.837280,256.705536 1497.837280,334.379333 
	C1465.488892,334.379333 1433.472168,334.379333 1400.922363,334.379333 
	C1400.922363,256.343445 1400.922363,178.758392 1400.922363,101.224854 
	C1370.645508,101.224854 1340.906982,101.224854 1310.999023,101.224854 
	C1310.999023,242.245560 1310.999023,382.872803 1310.999023,524.500183 
M2929.492432,457.499573 
	C2929.604980,486.484589 2929.611328,515.470520 2929.866211,544.454285 
	C2930.045898,564.889709 2933.322510,584.825684 2940.498535,604.042664 
	C2949.297119,627.606018 2963.573486,646.960022 2984.826172,660.685547 
	C3002.427734,672.052979 3021.963623,677.956787 3042.723877,680.356873 
	C3067.802002,683.256104 3092.505127,682.053284 3116.832520,674.970337 
	C3137.551270,668.937988 3155.414551,658.278870 3169.935547,642.249695 
	C3188.103027,622.195557 3197.511475,597.974548 3200.834717,571.681091 
	C3203.097900,553.774048 3203.372314,535.532776 3203.396729,517.439453 
	C3203.522461,423.309082 3203.262451,329.178223 3203.183838,235.047501 
	C3203.163330,210.525543 3199.987305,186.555237 3190.396484,163.812531 
	C3180.985107,141.494385 3166.422852,123.408951 3145.479980,110.726044 
	C3128.412109,100.389572 3109.843506,94.868576 3090.134277,92.653252 
	C3060.098145,89.277199 3030.728271,91.116325 3002.466797,102.967781 
	C2968.511475,117.206848 2948.034668,143.178711 2937.202148,177.559586 
	C2930.947021,197.411484 2929.187012,217.920654 2929.194824,238.591858 
	C2929.222900,311.227783 2929.382568,383.863647 2929.492432,457.499573 
M2403.500244,91.830704 
	C2391.127197,93.225868 2378.515381,93.540382 2366.425049,96.213615 
	C2326.054199,105.139656 2297.798096,128.757080 2282.928711,167.761108 
	C2273.708984,191.945328 2271.326416,217.127151 2272.036621,242.713348 
	C2272.922363,274.605255 2281.377441,304.267395 2298.348633,331.486908 
	C2317.584961,362.339874 2343.199707,387.406708 2369.972656,411.453308 
	C2388.165039,427.793457 2406.178223,444.219116 2421.595459,463.390411 
	C2445.107910,492.628174 2453.129883,525.722290 2447.803955,562.380493 
	C2446.199951,573.419128 2442.452881,583.906616 2433.237793,590.987732 
	C2417.689209,602.935547 2400.102539,602.861023 2382.560791,597.032166 
	C2366.816406,591.800598 2359.289307,578.778748 2357.753418,563.246155 
	C2356.054688,546.069519 2356.382324,528.692078 2355.844727,511.401550 
	C2355.784912,509.472961 2355.836426,507.540863 2355.836426,505.681519 
	C2327.052246,505.681519 2299.001465,505.681519 2270.831299,505.681519 
	C2270.831299,519.654114 2270.596924,533.115295 2270.880615,546.565613 
	C2271.448486,573.482300 2276.135742,599.503113 2289.023438,623.525635 
	C2301.721924,647.194824 2320.837402,663.635620 2345.912354,673.054871 
	C2368.562500,681.563232 2392.132812,683.385254 2416.078369,682.012756 
	C2438.428711,680.731750 2459.800781,675.886353 2479.385986,664.577026 
	C2506.595703,648.865173 2523.101074,624.986755 2531.852051,595.330627 
	C2539.430420,569.646912 2540.708008,543.342163 2538.981201,516.792480 
	C2536.877441,484.449463 2527.138428,454.659424 2509.243164,427.559631 
	C2492.514648,402.226410 2471.354248,380.872772 2449.045654,360.592834 
	C2429.846680,343.139587 2410.311035,326.083984 2393.290283,306.366821 
	C2370.730225,280.233307 2358.746826,250.699570 2362.870117,215.703247 
	C2364.338135,203.245499 2367.232178,191.057220 2377.712402,183.037659 
	C2393.650635,170.841263 2411.541504,171.022430 2429.214355,178.301376 
	C2443.687744,184.262543 2449.169434,197.564606 2450.767578,211.900467 
	C2452.311035,225.744980 2452.001221,239.796753 2452.483643,253.758240 
	C2452.550537,255.694046 2452.492920,257.634186 2452.492920,259.444336 
	C2481.291504,259.444336 2509.364990,259.444336 2537.836426,259.444336 
	C2537.836426,251.418915 2537.938477,243.776978 2537.817871,236.138535 
	C2537.440430,212.233490 2535.015381,188.643951 2526.517578,166.045868 
	C2515.176270,135.886871 2495.244629,113.868736 2465.039307,101.838417 
	C2445.627197,94.106895 2425.284180,91.513412 2403.500244,91.830704 
M2196.499756,674.508118 
	C2208.586182,674.508118 2220.672607,674.508118 2232.572754,674.508118 
	C2232.572754,646.827942 2232.572754,619.920715 2232.572754,592.452148 
	C2180.579102,592.452148 2129.011230,592.452148 2077.142578,592.452148 
	C2077.142578,533.483215 2077.142578,475.080566 2077.142578,415.970856 
	C2118.446533,415.970856 2159.484375,415.970856 2200.416992,415.970856 
	C2200.416992,388.329865 2200.416992,361.398346 2200.416992,333.973236 
	C2159.096680,333.973236 2118.192627,333.973236 2076.900391,333.973236 
	C2076.900391,283.248535 2076.900391,233.019516 2076.900391,182.234406 
	C2128.727539,182.234406 2180.320068,182.234406 2232.091797,182.234406 
	C2232.091797,154.612640 2232.091797,127.547569 2232.091797,100.466652 
	C2149.974609,100.466652 2068.274902,100.466652 1986.889160,100.466652 
	C1986.889160,292.122772 1986.889160,483.308624 1986.889160,674.508057 
	C2056.909912,674.508057 2126.204834,674.508057 2196.499756,674.508118 
M1112.503296,101.138817 
	C1071.236938,101.138817 1029.970581,101.138817 988.568298,101.138817 
	C988.568298,128.837570 988.568298,155.863373 988.568298,183.333557 
	C1020.063965,183.333557 1051.160645,183.333557 1082.906250,183.333557 
	C1082.906250,347.638458 1082.906250,511.497986 1082.906250,675.267761 
	C1113.426514,675.267761 1143.288208,675.267761 1173.316406,675.267761 
	C1173.316406,510.995422 1173.316406,347.288635 1173.316406,182.986450 
	C1204.693359,182.986450 1235.758301,182.986450 1266.790039,182.986450 
	C1266.790039,155.344925 1266.790039,128.301132 1266.790039,101.021393 
	C1215.441162,101.021393 1164.468994,101.021393 1112.503296,101.138817 
M3354.170166,114.503311 
	C3354.170166,109.420715 3354.170166,104.338112 3354.170166,99.341141 
	C3323.701172,99.341141 3293.974609,99.341141 3264.660156,99.341141 
	C3264.660156,290.846924 3264.660156,482.008484 3264.660156,672.948242 
	C3344.521729,672.948242 3423.719971,672.948242 3502.862793,672.948242 
	C3502.862793,645.471008 3502.862793,618.554443 3502.862793,591.149902 
	C3453.493652,591.149902 3404.428711,591.149902 3354.170166,591.149902 
	C3354.170166,432.274170 3354.170166,273.888000 3354.170166,114.503311 
M835.962097,416.500000 
	C835.962097,312.449860 835.962097,208.399719 835.962097,103.945038 
	C828.985229,103.945038 822.822144,104.247040 816.704956,103.847290 
	C812.005249,103.540184 810.917358,105.203979 810.919983,109.728127 
	C811.029236,296.665161 811.013550,483.602264 811.013550,670.539368 
	C811.013550,672.312073 811.013550,674.084717 811.013550,676.099487 
	C819.592529,676.099487 827.510254,676.099487 835.962097,676.099487 
	C835.962097,589.694763 835.962097,503.597382 835.962097,416.500000 
z"/>
<path fill="#FEFEFE" opacity="1.000000" stroke="none" 
	d="
M154.560486,408.552002 
	C143.586716,361.019409 146.338943,314.698059 163.041580,269.314270 
	C174.384811,238.492874 191.550415,211.235397 214.190521,187.404510 
	C245.868118,154.060822 283.957001,131.467102 328.345795,119.716049 
	C359.105042,111.573143 390.379761,109.814667 421.916565,114.319557 
	C449.612579,118.275803 475.949982,126.577614 500.631989,139.837570 
	C529.230103,155.201401 554.021790,175.202682 574.706604,200.342361 
	C597.645996,228.222092 613.889221,259.447723 622.594666,294.486328 
	C635.525146,346.530029 631.681763,397.360565 610.993103,446.870361 
	C601.423462,469.771454 588.366089,490.531677 572.394836,509.492950 
	C571.655029,510.371246 571.010437,511.329681 569.720825,513.053711 
	C618.337891,561.282593 666.926758,609.483521 715.124878,657.296814 
	C701.499695,670.851013 688.342834,683.939270 675.384338,696.830261 
	C626.877686,648.322083 577.569214,599.012146 528.527466,549.968933 
	C518.326843,555.951111 509.241913,561.653015 499.821442,566.732727 
	C472.866150,581.267517 444.019409,589.810547 413.586273,592.949524 
	C363.121948,598.154419 315.645996,588.187134 271.442169,563.585693 
	C239.303818,545.699280 212.873474,521.277649 191.711349,491.060089 
	C174.146851,465.979645 161.833313,438.661377 154.560486,408.552002 
M236.953278,249.480438 
	C192.573380,314.857025 197.859146,394.071594 229.993057,446.275360 
	C248.050278,443.499664 265.909454,440.754395 284.008026,437.972321 
	C283.965576,438.063171 284.223053,437.768982 284.223480,437.474396 
	C284.265442,409.335541 289.102905,381.876099 296.867493,354.977295 
	C304.600281,328.188507 318.022736,304.338348 337.633057,284.403625 
	C357.503143,264.204865 382.196106,252.224533 409.308746,245.143433 
	C426.897766,240.549683 444.775635,237.544678 463.110352,239.117386 
	C467.308319,239.477463 471.510071,239.793411 475.222260,240.090607 
	C474.899841,223.878662 474.669983,208.407074 474.163300,192.944550 
	C474.113007,191.409744 472.698151,189.052704 471.367676,188.560196 
	C457.245880,183.332672 443.347046,176.891129 428.749969,173.669907 
	C377.869507,162.441742 330.340729,171.791550 286.736664,200.242752 
	C267.056152,213.084106 250.814514,229.622055 236.953278,249.480438 
M558.977112,424.415375 
	C570.456421,395.677765 574.990601,365.923279 571.957214,335.084686 
	C569.650696,311.635529 562.760315,289.532318 551.908081,268.675354 
	C551.179565,267.275177 548.689697,265.921387 547.079224,265.988617 
	C534.794617,266.501465 522.532715,267.610840 510.246674,268.006592 
	C505.825623,268.149017 504.208801,268.759338 504.743561,273.794464 
	C507.976074,304.231171 504.680786,333.928802 492.528625,362.197357 
	C477.680420,396.737427 451.969757,421.207031 419.401978,438.955597 
	C392.984497,453.352417 364.427246,460.413177 334.653046,463.069855 
	C327.089783,463.744690 319.504333,464.171265 313.188782,464.622009 
	C310.652313,482.844269 308.219940,500.318817 305.754181,518.033325 
	C345.986359,537.994934 388.376129,543.755859 432.652954,532.886414 
	C467.230225,524.398193 496.707214,507.008209 521.522156,481.460114 
	C537.513123,464.996735 549.279236,445.852661 558.977112,424.415375 
M426.233612,403.704254 
	C429.478638,401.201324 432.723663,398.698364 436.358978,395.894379 
	C406.785217,367.554871 377.726624,339.709015 348.074463,311.294403 
	C343.985382,317.534668 340.211304,323.568329 336.138641,329.393250 
	C334.115997,332.286133 335.104156,333.995331 337.316498,336.093719 
	C357.124451,354.881531 376.840637,373.766022 396.616821,392.587402 
	C402.972778,398.636505 409.426971,404.582397 415.867493,410.604767 
	C419.351135,408.332275 422.527344,406.260315 426.233612,403.704254 
M393.256195,330.247772 
	C411.663300,347.815460 430.070374,365.383148 448.898224,383.352386 
	C453.239685,377.401947 457.488892,371.577942 462.416626,364.823944 
	C459.980591,362.883972 457.896912,361.469727 456.101501,359.753876 
	C446.478973,350.557892 436.911011,341.304504 427.356812,332.037354 
	C412.067322,317.207184 396.826813,302.326294 381.473572,287.562561 
	C380.497833,286.624298 378.188751,285.656860 377.417847,286.146942 
	C371.627441,289.827728 366.067657,293.871368 359.974457,298.123352 
	C371.458771,309.202271 382.106232,319.473907 393.256195,330.247772 
M329.740082,386.747345 
	C344.000793,400.002197 358.243561,413.276581 372.562378,426.468323 
	C373.526306,427.356415 375.321472,428.381622 376.295471,428.053406 
	C383.546356,425.609955 390.687408,422.840668 398.479095,419.944550 
	C373.702667,396.171021 349.763275,373.200653 325.484070,349.904236 
	C323.648468,355.415131 322.271179,360.208374 320.462097,364.832703 
	C317.472015,372.475983 317.984833,378.873566 325.856506,383.304260 
	C327.129517,384.020813 328.102295,385.270721 329.740082,386.747345 
M455.254333,334.246521 
	C459.631836,339.183716 464.009369,344.120941 468.386871,349.058136 
	C469.136780,348.692047 469.886688,348.325928 470.636597,347.959808 
	C472.569214,341.319824 474.355438,334.632080 476.500031,328.061279 
	C477.482849,325.050171 476.686340,323.140381 474.485931,321.092194 
	C456.830444,304.657898 439.284027,288.106384 421.597260,271.706024 
	C420.473175,270.663666 418.269836,269.839905 416.884735,270.184662 
	C410.157959,271.858948 403.539032,273.966553 395.886047,276.213013 
	C416.012421,295.883026 435.383057,314.814423 455.254333,334.246521 
M344.215546,435.593597 
	C347.247589,435.083923 350.279633,434.574280 354.253693,433.906311 
	C340.650818,421.331055 327.790527,409.442291 314.218994,396.896057 
	C312.107727,411.312988 309.542664,424.453644 310.745758,438.800110 
	C321.927979,437.770111 332.645538,436.782898 344.215546,435.593597 
M273.254272,494.246429 
	C275.952515,496.842316 278.650726,499.438232 281.812836,502.480377 
	C284.429077,489.620575 286.689178,477.621887 285.505798,464.616272 
	C272.990173,466.228821 260.932556,467.782349 250.311508,469.150757 
	C257.765961,477.320312 265.259735,485.532928 273.254272,494.246429 
M461.172577,265.157654 
	C455.101044,265.157654 449.029510,265.157654 442.957947,265.157654 
	C442.813202,265.605408 442.668427,266.053192 442.523651,266.500946 
	C454.857147,278.011871 467.190643,289.522827 479.524170,301.033752 
	C479.981384,300.859650 480.438629,300.685516 480.895874,300.511383 
	C480.206238,290.123322 479.604279,279.727509 478.690491,269.359161 
	C478.599701,268.329346 476.707062,266.835358 475.478882,266.640717 
	C471.060242,265.940399 466.567902,265.704865 461.172577,265.157654 
M511.575256,241.788498 
	C518.919739,241.505508 526.264282,241.222519 534.750916,240.895523 
	C524.395447,227.429398 513.395569,216.579147 499.858917,206.430191 
	C500.564178,218.932159 501.192566,230.071381 501.821747,241.224487 
	C505.328735,241.449127 507.968109,241.618210 511.575256,241.788498 
z"/>
<path fill="#FEFEFF" opacity="1.000000" stroke="none" 
	d="
M1655.828369,338.341980 
	C1655.715942,335.377838 1655.509888,332.884888 1655.509277,330.391907 
	C1655.492188,255.908081 1655.495483,181.424255 1655.495483,106.940422 
	C1655.495483,104.983505 1655.495361,103.026588 1655.495361,100.495415 
	C1657.838989,100.495415 1659.620605,100.495415 1661.402344,100.495415 
	C1703.893066,100.495422 1746.384277,100.387680 1788.874512,100.537766 
	C1812.576050,100.621490 1835.968384,102.848747 1858.255981,111.918091 
	C1884.303467,122.517555 1902.376587,140.840576 1912.525391,167.045868 
	C1920.020264,186.398956 1922.729492,206.632248 1922.893799,227.180969 
	C1923.058838,247.823105 1923.154175,268.513947 1921.955322,289.106323 
	C1920.544800,313.333893 1914.221680,336.270233 1898.664917,355.725311 
	C1891.421997,364.782959 1882.649048,372.032013 1872.179443,377.151337 
	C1869.406738,378.507050 1866.685791,379.968628 1862.994141,381.869141 
	C1865.243530,382.895752 1866.481812,383.582520 1867.798950,384.043823 
	C1889.413818,391.613861 1903.720337,406.692871 1912.343628,427.527374 
	C1921.150635,448.805023 1923.656616,471.286774 1923.903442,493.992737 
	C1924.316406,531.978149 1924.014404,569.970764 1924.209595,607.959351 
	C1924.308716,627.268677 1924.653564,646.597351 1930.744385,665.243713 
	C1931.717285,668.222046 1932.727783,671.188110 1933.873291,674.616333 
	C1903.296509,674.616333 1873.090820,674.616333 1842.337769,674.616333 
	C1837.861206,663.722534 1835.498901,651.899414 1835.090576,639.798462 
	C1834.433594,620.331604 1834.170532,600.847107 1834.037109,581.368042 
	C1833.835083,551.877869 1834.094116,522.383484 1833.736816,492.895996 
	C1833.577637,479.759216 1832.247314,466.686371 1826.976074,454.337372 
	C1821.458130,441.410431 1811.813110,432.870453 1798.114746,431.194000 
	C1781.051514,429.105652 1763.755981,428.916412 1746.100708,427.880096 
	C1746.100708,511.042969 1746.100708,592.764648 1746.100708,674.743042 
	C1715.975586,674.743042 1686.241943,674.743042 1655.830566,674.743042 
	C1655.830566,562.651367 1655.830566,450.732269 1655.828369,338.341980 
M1759.504150,182.501923 
	C1755.078735,182.501923 1750.653320,182.501923 1746.191162,182.501923 
	C1746.191162,237.599686 1746.191162,291.972626 1746.191162,346.982300 
	C1759.156006,346.982300 1771.812744,347.623688 1784.369507,346.779236 
	C1794.400391,346.104706 1804.453369,344.062103 1813.023438,337.971283 
	C1826.253174,328.568848 1831.060913,314.623932 1831.933472,299.507355 
	C1833.006470,280.919098 1832.935913,262.241089 1832.690552,243.610672 
	C1832.569702,234.424103 1831.589966,225.134583 1829.871460,216.106232 
	C1825.844971,194.951614 1812.453735,183.716400 1790.955444,182.876236 
	C1780.814941,182.479935 1770.653931,182.610168 1759.504150,182.501923 
z"/>
<path fill="#FEFEFF" opacity="1.000000" stroke="none" 
	d="
M3546.495361,353.999573 
	C3546.495361,268.874725 3546.495361,184.249939 3546.495361,99.122879 
	C3548.052490,99.027016 3549.640625,98.842690 3551.228760,98.844025 
	C3599.054443,98.884384 3646.886963,98.468300 3694.702881,99.176590 
	C3723.478760,99.602844 3750.636475,106.703125 3773.929932,124.828346 
	C3790.267090,137.540344 3800.994141,154.223251 3808.192627,173.415009 
	C3815.957275,194.116776 3818.693115,215.698608 3818.759766,237.585709 
	C3819.003662,317.740509 3818.959961,397.896210 3818.990967,478.051575 
	C3818.999512,500.041901 3819.509033,522.055603 3818.680664,544.016785 
	C3817.616699,572.219238 3811.893311,599.351990 3795.886719,623.397888 
	C3781.563721,644.914917 3761.502441,658.438049 3737.026367,665.937805 
	C3719.344727,671.355652 3701.185059,673.100647 3682.824707,673.137512 
	C3638.663086,673.226196 3594.501221,673.167236 3550.339600,673.159119 
	C3549.366943,673.158997 3548.394531,673.054443 3546.495361,672.945496 
	C3546.495361,566.669067 3546.495361,460.584320 3546.495361,353.999573 
M3728.832520,416.500061 
	C3728.832520,369.686005 3728.905273,322.871796 3728.794434,276.058014 
	C3728.753906,258.914398 3729.068848,241.714050 3727.822021,224.641815 
	C3725.759277,196.400787 3711.685547,180.117447 3680.985840,180.786545 
	C3667.997314,181.069641 3654.997559,180.833817 3642.002930,180.833862 
	C3640.259766,180.833862 3638.516602,180.833862 3637.104004,180.833862 
	C3637.104004,318.018188 3637.104004,454.369843 3637.104004,590.911133 
	C3654.465332,590.911133 3671.284668,591.359497 3688.067871,590.773499 
	C3702.258545,590.278137 3714.162598,584.720154 3721.440674,571.620667 
	C3726.921387,561.755798 3728.694824,550.934509 3728.750244,539.934814 
	C3728.956299,499.124176 3728.832275,458.311829 3728.832520,416.500061 
z"/>
<path fill="#FEFEFE" opacity="1.000000" stroke="none" 
	d="
M2778.491455,444.999573 
	C2778.491455,435.047760 2778.491455,425.596008 2778.491455,415.832123 
	C2746.008301,415.832123 2714.112793,415.832123 2681.862549,415.832123 
	C2681.862549,501.766876 2681.862549,587.499756 2681.862549,673.701538 
	C2651.818848,673.701538 2622.090576,673.701538 2591.678955,673.701538 
	C2591.678955,482.719666 2591.678955,291.554474 2591.678955,99.940033 
	C2621.155273,99.940033 2650.884521,99.940033 2681.296387,99.940033 
	C2681.296387,177.581299 2681.296387,255.154221 2681.296387,333.107819 
	C2713.849121,333.107819 2745.723145,333.107819 2777.941895,333.107819 
	C2777.941895,255.360443 2777.941895,177.760834 2777.941895,99.826698 
	C2808.169434,99.826698 2838.054443,99.826698 2868.471191,99.826698 
	C2868.471191,291.167755 2868.471191,482.243683 2868.471191,673.661499 
	C2839.015625,673.661499 2809.283447,673.661499 2778.491455,673.661499 
	C2778.491455,597.642395 2778.491455,521.570984 2778.491455,444.999573 
z"/>
<path fill="#FEFEFF" opacity="1.000000" stroke="none" 
	d="
M1310.999023,524.000122 
	C1310.999023,382.872803 1310.999023,242.245560 1310.999023,101.224854 
	C1340.906982,101.224854 1370.645508,101.224854 1400.922363,101.224854 
	C1400.922363,178.758392 1400.922363,256.343445 1400.922363,334.379333 
	C1433.472168,334.379333 1465.488892,334.379333 1497.837280,334.379333 
	C1497.837280,256.705536 1497.837280,179.117584 1497.837280,101.180969 
	C1527.896484,101.180969 1557.629150,101.180969 1588.098877,101.180969 
	C1588.098877,292.201080 1588.098877,483.253754 1588.098877,674.737671 
	C1558.702881,674.737671 1528.851196,674.737671 1498.352295,674.737671 
	C1498.352295,588.903870 1498.352295,503.156189 1498.352295,417.122650 
	C1465.780151,417.122650 1433.851685,417.122650 1401.421265,417.122650 
	C1401.421265,502.997742 1401.421265,588.869568 1401.421265,675.122192 
	C1371.168091,675.122192 1341.415405,675.122192 1310.999023,675.122192 
	C1310.999023,624.734375 1310.999023,574.617249 1310.999023,524.000122 
z"/>
<path fill="#FEFEFE" opacity="1.000000" stroke="none" 
	d="
M2929.492432,456.999573 
	C2929.382568,383.863647 2929.222900,311.227783 2929.194824,238.591858 
	C2929.187012,217.920654 2930.947021,197.411484 2937.202148,177.559586 
	C2948.034668,143.178711 2968.511475,117.206848 3002.466797,102.967781 
	C3030.728271,91.116325 3060.098145,89.277199 3090.134277,92.653252 
	C3109.843506,94.868576 3128.412109,100.389572 3145.479980,110.726044 
	C3166.422852,123.408951 3180.985107,141.494385 3190.396484,163.812531 
	C3199.987305,186.555237 3203.163330,210.525543 3203.183838,235.047501 
	C3203.262451,329.178223 3203.522461,423.309082 3203.396729,517.439453 
	C3203.372314,535.532776 3203.097900,553.774048 3200.834717,571.681091 
	C3197.511475,597.974548 3188.103027,622.195557 3169.935547,642.249695 
	C3155.414551,658.278870 3137.551270,668.937988 3116.832520,674.970337 
	C3092.505127,682.053284 3067.802002,683.256104 3042.723877,680.356873 
	C3021.963623,677.956787 3002.427734,672.052979 2984.826172,660.685547 
	C2963.573486,646.960022 2949.297119,627.606018 2940.498535,604.042664 
	C2933.322510,584.825684 2930.045898,564.889709 2929.866211,544.454285 
	C2929.611328,515.470520 2929.604980,486.484589 2929.492432,456.999573 
M3104.891602,581.268127 
	C3111.121094,570.437439 3113.161621,558.605835 3113.156494,546.311157 
	C3113.112549,441.179047 3113.067627,336.046906 3112.955078,230.914856 
	C3112.948975,225.270264 3112.735840,219.567017 3111.920410,213.993332 
	C3109.606445,198.182236 3103.890869,184.124710 3088.120850,177.251480 
	C3074.803467,171.447250 3060.875000,171.671021 3047.154297,176.182755 
	C3036.609619,179.650162 3029.533936,187.046936 3025.159180,197.149689 
	C3020.432373,208.066238 3019.519775,219.627792 3019.529541,231.298233 
	C3019.599854,315.931000 3019.721924,400.563751 3019.840820,485.196503 
	C3019.870361,506.354431 3019.859863,527.513000 3020.040039,548.669861 
	C3020.128662,559.075562 3021.946045,569.253540 3026.765381,578.553223 
	C3033.834229,592.193420 3045.777344,598.542358 3060.697021,599.576782 
	C3078.100098,600.783325 3093.929199,597.727844 3104.891602,581.268127 
z"/>
<path fill="#FEFEFF" opacity="1.000000" stroke="none" 
	d="
M2404.000000,91.830315 
	C2425.284180,91.513412 2445.627197,94.106895 2465.039307,101.838417 
	C2495.244629,113.868736 2515.176270,135.886871 2526.517578,166.045868 
	C2535.015381,188.643951 2537.440430,212.233490 2537.817871,236.138535 
	C2537.938477,243.776978 2537.836426,251.418915 2537.836426,259.444336 
	C2509.364990,259.444336 2481.291504,259.444336 2452.492920,259.444336 
	C2452.492920,257.634186 2452.550537,255.694046 2452.483643,253.758240 
	C2452.001221,239.796753 2452.311035,225.744980 2450.767578,211.900467 
	C2449.169434,197.564606 2443.687744,184.262543 2429.214355,178.301376 
	C2411.541504,171.022430 2393.650635,170.841263 2377.712402,183.037659 
	C2367.232178,191.057220 2364.338135,203.245499 2362.870117,215.703247 
	C2358.746826,250.699570 2370.730225,280.233307 2393.290283,306.366821 
	C2410.311035,326.083984 2429.846680,343.139587 2449.045654,360.592834 
	C2471.354248,380.872772 2492.514648,402.226410 2509.243164,427.559631 
	C2527.138428,454.659424 2536.877441,484.449463 2538.981201,516.792480 
	C2540.708008,543.342163 2539.430420,569.646912 2531.852051,595.330627 
	C2523.101074,624.986755 2506.595703,648.865173 2479.385986,664.577026 
	C2459.800781,675.886353 2438.428711,680.731750 2416.078369,682.012756 
	C2392.132812,683.385254 2368.562500,681.563232 2345.912354,673.054871 
	C2320.837402,663.635620 2301.721924,647.194824 2289.023438,623.525635 
	C2276.135742,599.503113 2271.448486,573.482300 2270.880615,546.565613 
	C2270.596924,533.115295 2270.831299,519.654114 2270.831299,505.681519 
	C2299.001465,505.681519 2327.052246,505.681519 2355.836426,505.681519 
	C2355.836426,507.540863 2355.784912,509.472961 2355.844727,511.401550 
	C2356.382324,528.692078 2356.054688,546.069519 2357.753418,563.246155 
	C2359.289307,578.778748 2366.816406,591.800598 2382.560791,597.032166 
	C2400.102539,602.861023 2417.689209,602.935547 2433.237793,590.987732 
	C2442.452881,583.906616 2446.199951,573.419128 2447.803955,562.380493 
	C2453.129883,525.722290 2445.107910,492.628174 2421.595459,463.390411 
	C2406.178223,444.219116 2388.165039,427.793457 2369.972656,411.453308 
	C2343.199707,387.406708 2317.584961,362.339874 2298.348633,331.486908 
	C2281.377441,304.267395 2272.922363,274.605255 2272.036621,242.713348 
	C2271.326416,217.127151 2273.708984,191.945328 2282.928711,167.761108 
	C2297.798096,128.757080 2326.054199,105.139656 2366.425049,96.213615 
	C2378.515381,93.540382 2391.127197,93.225868 2404.000000,91.830315 
z"/>
<path fill="#FEFEFE" opacity="1.000000" stroke="none" 
	d="
M2195.999512,674.508057 
	C2126.204834,674.508057 2056.909912,674.508057 1986.889160,674.508057 
	C1986.889160,483.308624 1986.889160,292.122772 1986.889160,100.466652 
	C2068.274902,100.466652 2149.974609,100.466652 2232.091797,100.466652 
	C2232.091797,127.547569 2232.091797,154.612640 2232.091797,182.234406 
	C2180.320068,182.234406 2128.727539,182.234406 2076.900391,182.234406 
	C2076.900391,233.019516 2076.900391,283.248535 2076.900391,333.973236 
	C2118.192627,333.973236 2159.096680,333.973236 2200.416992,333.973236 
	C2200.416992,361.398346 2200.416992,388.329865 2200.416992,415.970856 
	C2159.484375,415.970856 2118.446533,415.970856 2077.142578,415.970856 
	C2077.142578,475.080566 2077.142578,533.483215 2077.142578,592.452148 
	C2129.011230,592.452148 2180.579102,592.452148 2232.572754,592.452148 
	C2232.572754,619.920715 2232.572754,646.827942 2232.572754,674.508118 
	C2220.672607,674.508118 2208.586182,674.508118 2195.999512,674.508057 
z"/>
<path fill="#FFFFFF" opacity="1.000000" stroke="none" 
	d="
M1113.000122,101.080109 
	C1164.468994,101.021393 1215.441162,101.021393 1266.790039,101.021393 
	C1266.790039,128.301132 1266.790039,155.344925 1266.790039,182.986450 
	C1235.758301,182.986450 1204.693359,182.986450 1173.316406,182.986450 
	C1173.316406,347.288635 1173.316406,510.995422 1173.316406,675.267761 
	C1143.288208,675.267761 1113.426514,675.267761 1082.906250,675.267761 
	C1082.906250,511.497986 1082.906250,347.638458 1082.906250,183.333557 
	C1051.160645,183.333557 1020.063965,183.333557 988.568298,183.333557 
	C988.568298,155.863373 988.568298,128.837570 988.568298,101.138817 
	C1029.970581,101.138817 1071.236938,101.138817 1113.000122,101.080109 
z"/>
<path fill="#FEFEFE" opacity="1.000000" stroke="none" 
	d="
M3354.170166,115.002571 
	C3354.170166,273.888000 3354.170166,432.274170 3354.170166,591.149902 
	C3404.428711,591.149902 3453.493652,591.149902 3502.862793,591.149902 
	C3502.862793,618.554443 3502.862793,645.471008 3502.862793,672.948242 
	C3423.719971,672.948242 3344.521729,672.948242 3264.660156,672.948242 
	C3264.660156,482.008484 3264.660156,290.846924 3264.660156,99.341141 
	C3293.974609,99.341141 3323.701172,99.341141 3354.170166,99.341141 
	C3354.170166,104.338112 3354.170166,109.420715 3354.170166,115.002571 
z"/>
<path fill="#FBFBFD" opacity="1.000000" stroke="none" 
	d="
M835.962097,417.000000 
	C835.962097,503.597382 835.962097,589.694763 835.962097,676.099487 
	C827.510254,676.099487 819.592529,676.099487 811.013550,676.099487 
	C811.013550,674.084717 811.013550,672.312073 811.013550,670.539368 
	C811.013550,483.602264 811.029236,296.665161 810.919983,109.728127 
	C810.917358,105.203979 812.005249,103.540184 816.704956,103.847290 
	C822.822144,104.247040 828.985229,103.945038 835.962097,103.945038 
	C835.962097,208.399719 835.962097,312.449860 835.962097,417.000000 
z"/>
<path fill="#345CA9" opacity="1.000000" stroke="none" 
	d="
M237.156311,249.183441 
	C250.814514,229.622055 267.056152,213.084106 286.736664,200.242752 
	C330.340729,171.791550 377.869507,162.441742 428.749969,173.669907 
	C443.347046,176.891129 457.245880,183.332672 471.367676,188.560196 
	C472.698151,189.052704 474.113007,191.409744 474.163300,192.944550 
	C474.669983,208.407074 474.899841,223.878662 475.222260,240.090607 
	C471.510071,239.793411 467.308319,239.477463 463.110352,239.117386 
	C444.775635,237.544678 426.897766,240.549683 409.308746,245.143433 
	C382.196106,252.224533 357.503143,264.204865 337.633057,284.403625 
	C318.022736,304.338348 304.600281,328.188507 296.867493,354.977295 
	C289.102905,381.876099 284.265442,409.335541 284.223480,437.474396 
	C284.223053,437.768982 283.965576,438.063171 284.008026,437.972321 
	C265.909454,440.754395 248.050278,443.499664 229.993057,446.275360 
	C197.859146,394.071594 192.573380,314.857025 237.156311,249.183441 
z"/>
<path fill="#345CA9" opacity="1.000000" stroke="none" 
	d="
M558.890259,424.790863 
	C549.279236,445.852661 537.513123,464.996735 521.522156,481.460114 
	C496.707214,507.008209 467.230225,524.398193 432.652954,532.886414 
	C388.376129,543.755859 345.986359,537.994934 305.754181,518.033325 
	C308.219940,500.318817 310.652313,482.844269 313.188782,464.622009 
	C319.504333,464.171265 327.089783,463.744690 334.653046,463.069855 
	C364.427246,460.413177 392.984497,453.352417 419.401978,438.955597 
	C451.969757,421.207031 477.680420,396.737427 492.528625,362.197357 
	C504.680786,333.928802 507.976074,304.231171 504.743561,273.794464 
	C504.208801,268.759338 505.825623,268.149017 510.246674,268.006592 
	C522.532715,267.610840 534.794617,266.501465 547.079224,265.988617 
	C548.689697,265.921387 551.179565,267.275177 551.908081,268.675354 
	C562.760315,289.532318 569.650696,311.635529 571.957214,335.084686 
	C574.990601,365.923279 570.456421,395.677765 558.890259,424.790863 
z"/>
<path fill="#365EAA" opacity="1.000000" stroke="none" 
	d="
M425.968567,403.946289 
	C422.527344,406.260315 419.351135,408.332275 415.867493,410.604767 
	C409.426971,404.582397 402.972778,398.636505 396.616821,392.587402 
	C376.840637,373.766022 357.124451,354.881531 337.316498,336.093719 
	C335.104156,333.995331 334.115997,332.286133 336.138641,329.393250 
	C340.211304,323.568329 343.985382,317.534668 348.074463,311.294403 
	C377.726624,339.709015 406.785217,367.554871 436.358978,395.894379 
	C432.723663,398.698364 429.478638,401.201324 425.968567,403.946289 
z"/>
<path fill="#365EAA" opacity="1.000000" stroke="none" 
	d="
M393.004944,329.996643 
	C382.106232,319.473907 371.458771,309.202271 359.974457,298.123352 
	C366.067657,293.871368 371.627441,289.827728 377.417847,286.146942 
	C378.188751,285.656860 380.497833,286.624298 381.473572,287.562561 
	C396.826813,302.326294 412.067322,317.207184 427.356812,332.037354 
	C436.911011,341.304504 446.478973,350.557892 456.101501,359.753876 
	C457.896912,361.469727 459.980591,362.883972 462.416626,364.823944 
	C457.488892,371.577942 453.239685,377.401947 448.898224,383.352386 
	C430.070374,365.383148 411.663300,347.815460 393.004944,329.996643 
z"/>
<path fill="#365EAA" opacity="1.000000" stroke="none" 
	d="
M329.476990,386.510742 
	C328.102295,385.270721 327.129517,384.020813 325.856506,383.304260 
	C317.984833,378.873566 317.472015,372.475983 320.462097,364.832703 
	C322.271179,360.208374 323.648468,355.415131 325.484070,349.904236 
	C349.763275,373.200653 373.702667,396.171021 398.479095,419.944550 
	C390.687408,422.840668 383.546356,425.609955 376.295471,428.053406 
	C375.321472,428.381622 373.526306,427.356415 372.562378,426.468323 
	C358.243561,413.276581 344.000793,400.002197 329.476990,386.510742 
z"/>
<path fill="#365EAA" opacity="1.000000" stroke="none" 
	d="
M455.004028,333.996185 
	C435.383057,314.814423 416.012421,295.883026 395.886047,276.213013 
	C403.539032,273.966553 410.157959,271.858948 416.884735,270.184662 
	C418.269836,269.839905 420.473175,270.663666 421.597260,271.706024 
	C439.284027,288.106384 456.830444,304.657898 474.485931,321.092194 
	C476.686340,323.140381 477.482849,325.050171 476.500031,328.061279 
	C474.355438,334.632080 472.569214,341.319824 470.636597,347.959808 
	C469.886688,348.325928 469.136780,348.692047 468.386871,349.058136 
	C464.009369,344.120941 459.631836,339.183716 455.004028,333.996185 
z"/>
<path fill="#365EAA" opacity="1.000000" stroke="none" 
	d="
M343.789307,435.694641 
	C332.645538,436.782898 321.927979,437.770111 310.745758,438.800110 
	C309.542664,424.453644 312.107727,411.312988 314.218994,396.896057 
	C327.790527,409.442291 340.650818,421.331055 354.253693,433.906311 
	C350.279633,434.574280 347.247589,435.083923 343.789307,435.694641 
z"/>
<path fill="#365EAA" opacity="1.000000" stroke="none" 
	d="
M273.003876,493.995972 
	C265.259735,485.532928 257.765961,477.320312 250.311508,469.150757 
	C260.932556,467.782349 272.990173,466.228821 285.505798,464.616272 
	C286.689178,477.621887 284.429077,489.620575 281.812836,502.480377 
	C278.650726,499.438232 275.952515,496.842316 273.003876,493.995972 
z"/>
<path fill="#365EAA" opacity="1.000000" stroke="none" 
	d="
M461.638000,265.225708 
	C466.567902,265.704865 471.060242,265.940399 475.478882,266.640717 
	C476.707062,266.835358 478.599701,268.329346 478.690491,269.359161 
	C479.604279,279.727509 480.206238,290.123322 480.895874,300.511383 
	C480.438629,300.685516 479.981384,300.859650 479.524170,301.033752 
	C467.190643,289.522827 454.857147,278.011871 442.523651,266.500946 
	C442.668427,266.053192 442.813202,265.605408 442.957947,265.157654 
	C449.029510,265.157654 455.101044,265.157654 461.638000,265.225708 
z"/>
<path fill="#365EAA" opacity="1.000000" stroke="none" 
	d="
M511.091370,241.787888 
	C507.968109,241.618210 505.328735,241.449127 501.821747,241.224487 
	C501.192566,230.071381 500.564178,218.932159 499.858917,206.430191 
	C513.395569,216.579147 524.395447,227.429398 534.750916,240.895523 
	C526.264282,241.222519 518.919739,241.505508 511.091370,241.787888 
z"/>
<path fill="#345CA9" opacity="1.000000" stroke="none" 
	d="
M1760.003174,182.501877 
	C1770.653931,182.610168 1780.814941,182.479935 1790.955444,182.876236 
	C1812.453735,183.716400 1825.844971,194.951614 1829.871460,216.106232 
	C1831.589966,225.134583 1832.569702,234.424103 1832.690552,243.610672 
	C1832.935913,262.241089 1833.006470,280.919098 1831.933472,299.507355 
	C1831.060913,314.623932 1826.253174,328.568848 1813.023438,337.971283 
	C1804.453369,344.062103 1794.400391,346.104706 1784.369507,346.779236 
	C1771.812744,347.623688 1759.156006,346.982300 1746.191162,346.982300 
	C1746.191162,291.972626 1746.191162,237.599686 1746.191162,182.501923 
	C1750.653320,182.501923 1755.078735,182.501923 1760.003174,182.501877 
z"/>
<path fill="#335BA9" opacity="1.000000" stroke="none" 
	d="
M3728.832520,417.000092 
	C3728.832275,458.311829 3728.956299,499.124176 3728.750244,539.934814 
	C3728.694824,550.934509 3726.921387,561.755798 3721.440674,571.620667 
	C3714.162598,584.720154 3702.258545,590.278137 3688.067871,590.773499 
	C3671.284668,591.359497 3654.465332,590.911133 3637.104004,590.911133 
	C3637.104004,454.369843 3637.104004,318.018188 3637.104004,180.833862 
	C3638.516602,180.833862 3640.259766,180.833862 3642.002930,180.833862 
	C3654.997559,180.833817 3667.997314,181.069641 3680.985840,180.786545 
	C3711.685547,180.117447 3725.759277,196.400787 3727.822021,224.641815 
	C3729.068848,241.714050 3728.753906,258.914398 3728.794434,276.058014 
	C3728.905273,322.871796 3728.832520,369.686005 3728.832520,417.000092 
z"/>
<path fill="#335BA9" opacity="1.000000" stroke="none" 
	d="
M3104.718994,581.592773 
	C3093.929199,597.727844 3078.100098,600.783325 3060.697021,599.576782 
	C3045.777344,598.542358 3033.834229,592.193420 3026.765381,578.553223 
	C3021.946045,569.253540 3020.128662,559.075562 3020.040039,548.669861 
	C3019.859863,527.513000 3019.870361,506.354431 3019.840820,485.196503 
	C3019.721924,400.563751 3019.599854,315.931000 3019.529541,231.298233 
	C3019.519775,219.627792 3020.432373,208.066238 3025.159180,197.149689 
	C3029.533936,187.046936 3036.609619,179.650162 3047.154297,176.182755 
	C3060.875000,171.671021 3074.803467,171.447250 3088.120850,177.251480 
	C3103.890869,184.124710 3109.606445,198.182236 3111.920410,213.993332 
	C3112.735840,219.567017 3112.948975,225.270264 3112.955078,230.914856 
	C3113.067627,336.046906 3113.112549,441.179047 3113.156494,546.311157 
	C3113.161621,558.605835 3111.121094,570.437439 3104.718994,581.592773 
z"/>
</svg>